<?xml version="1.0" encoding="UTF-8" standalone="no"?>
<svg xmlns="http://www.w3.org/2000/svg" width="100%" height="100%" viewBox="0 0 500 340" clip-rule="evenodd" fill-rule="evenodd" stroke-linecap="round" stroke-linejoin="round" stroke-miterlimit="1.5" style="white-space: preserve-spaces;">
    <defs>
        <linearGradient id="Gradient-0" x1="0" y1="-150.052" x2="0" y2="150.052" gradientUnits="userSpaceOnUse">
            <stop offset="0" stop-color="#fff2bf"/>
            <stop offset="0.6" stop-color="#ffd427"/>
        </linearGradient>
        <clipPath id="_clip1">
            <ellipse rx="150.052" ry="150.052" transform="translate(0,0) translate(187.5,160)"/>
        </clipPath>
        <mask id="loch-b" fill="#fff">
            <g transform="translate(35.834,13.968) translate(-35.834,-13.968)">
                <path id="loch-a-2" d="M35.834,0.936C55.614,0.936,71.672,6.775,71.672,13.968C71.672,21.161,55.614,27,35.834,27C16.054,27,-0.004,21.161,-0.004,13.968C-0.004,6.775,16.054,0.936,35.834,0.936" transform="translate(35.834,13.968) translate(-35.834,-13.968)"/>
            </g>
        </mask>
    </defs>
    <style>
@keyframes cloud-03a_t { 0% { transform: translate(-1.446px,-39.727px); animation-timing-function: cubic-bezier(0,0,1,1); } 5.526% { transform: translate(15.5553px,-39.727px); animation-timing-function: cubic-bezier(0,0,1,1); } 52.7608% { transform: translate(160.026352px,-39.796307px); animation-timing-function: cubic-bezier(0,0,1,1); } 76.3782% { transform: translate(232.136765px,-39.841068px); animation-timing-function: cubic-bezier(0,0,1,1); } 88.1869% { transform: translate(268.195282px,-39.846924px); animation-timing-function: cubic-bezier(0,0,1,1); } 94.0913% { transform: translate(286.464325px,-39.832932px); animation-timing-function: cubic-bezier(0,0,1,1); } 97.0434% { transform: translate(295.494629px,-39.812611px); animation-timing-function: cubic-bezier(0,0,1,1); } 100% { transform: translate(304.2px,-39.727px); } }
@keyframes cloud-01-a_t { 0% { transform: translate(18.947px,-15.835px); } 5.8999% { transform: translate(34.9123px,-15.835px); } 22.7217% { transform: translate(80.352px,-15.835px); } 100% { transform: translate(80.352px,-15.835px); } }
@keyframes cloud-02b_t { 0% { transform: translate(19.501px,-53px); } 5.8999% { transform: translate(36.2549px,-53px); } 60.4478% { transform: translate(190.906px,-53px); } 100% { transform: translate(190.906px,-53px); } }
@keyframes cloud-3b_t { 0% { transform: translate(-48.801px,-39.727px); } 5.8999% { transform: translate(-48.801px,-39.727px); } 75.9043% { transform: translate(-48.801px,-39.727px); } 100% { transform: translate(-1.446px,-39.727px); } }
@keyframes cloud-1b_t { 0% { transform: translate(-252.553px,-15px); } 5.8999% { transform: translate(-252.553px,-15.005px); } 29.0869% { transform: translate(-252.553px,-15.005px); } 100% { transform: translate(18.947px,-15.835px); } }
@keyframes cloud-2b_t { 0% { transform: translate(-98.052px,-53px); } 5.8999% { transform: translate(-98.052px,-53px); } 62.2608% { transform: translate(-98.052px,-53px); } 100% { transform: translate(19.501px,-53px); } }
@keyframes a0_t { 0% { transform: translate(207.654px,275.551px); } 4.3478% { transform: translate(207.654px,275.551px); animation-timing-function: cubic-bezier(0.377904,0,0.703415,0.391837); } 4.8434% { transform: translate(208.104767px,257.80957px); animation-timing-function: cubic-bezier(0.36636,0.250855,0.666129,0.668009); } 5.3434% { transform: translate(212.254471px,206.359573px); animation-timing-function: cubic-bezier(0.299258,0.46683,0.619035,0.853274); } 5.8391% { transform: translate(239.141388px,165.403641px); animation-timing-function: cubic-bezier(0.318139,0.648272,0.650585,1); } 6.3391% { transform: translate(256.597px,161.019px); } 30.4347% { transform: translate(256.597px,161.019px); animation-timing-function: cubic-bezier(0.327102,0,0.665172,0.380594); } 31.0217% { transform: translate(243.660172px,163.512054px); animation-timing-function: cubic-bezier(0.351114,0.234941,0.696857,0.613066); } 31.613% { transform: translate(218.411316px,183.169617px); animation-timing-function: cubic-bezier(0.40819,0.368246,0.758523,0.744949); } 32.2% { transform: translate(208.82608px,227.919464px); animation-timing-function: cubic-bezier(0.458008,0.488414,0.801296,0.847388); } 32.4956% { transform: translate(208.667496px,254.516891px); animation-timing-function: cubic-bezier(0.43479,0.596325,0.770269,0.93953); } 32.7913% { transform: translate(209.654px,279.551px); } 100% { transform: translate(209.654px,279.551px); } }
@keyframes morph_t { 0% { transform: rotate(13.107388deg) scale(1.3,1.3) translate(-42.1094px,-35.2188px); } 5.6173% { transform: rotate(13.107388deg) scale(1.3,1.3) translate(-42.1094px,-35.2188px); animation-timing-function: cubic-bezier(0.589045,-0.002438,0.58,1); } 6.7043% { transform: rotate(-15.383139deg) scale(1.3,1.3) translate(-42.1094px,-35.2188px); animation-timing-function: cubic-bezier(0.515308,-0.001577,0.45968,0.998068); } 7.6086% { transform: rotate(2.647839deg) scale(1.3,1.3) translate(-42.1094px,-35.2188px); animation-timing-function: cubic-bezier(0.439695,0.0191,0.268898,1.002173); } 8.6956% { transform: rotate(-5.463632deg) scale(1.3,1.3) translate(-42.1094px,-35.2188px); } 30.4347% { transform: rotate(-5.463632deg) scale(1.3,1.3) translate(-42.1094px,-35.2188px); } 31.5043% { transform: rotate(10.54deg) scale(1.3,1.3) translate(-42.1094px,-35.2188px); } 100% { transform: rotate(10.54deg) scale(1.3,1.3) translate(-42.1094px,-35.2188px); } }
@keyframes dreieck_t { 0% { transform: translate(34.238px,59.9516px) scale(0.5,0.5) translate(-17px,-48.2301px); } 5.7695% { transform: translate(34.238px,59.9516px) scale(0.5,0.5) translate(-17px,-48.2301px); animation-timing-function: cubic-bezier(0,0,0.58,1); } 6.7043% { transform: translate(28.6824px,75.9516px) scale(0.8,0.8) translate(-17px,-48.2301px); } 30.4347% { transform: translate(28.6824px,75.9516px) scale(0.8,0.8) translate(-17px,-48.2301px); } 31.1608% { transform: translate(33.8036px,55.3567px) scale(0.5,0.5) translate(-17px,-48.2301px); } 100% { transform: translate(33.8036px,55.3567px) scale(0.5,0.5) translate(-17px,-48.2301px); } }
@keyframes dreieck_o { 0% { opacity: 0; } 5.6174% { opacity: 0; } 5.7696% { opacity: 1; } 31.1609% { opacity: 1; } 31.3391% { opacity: 0; } 100% { opacity: 0; } }
@keyframes ballon_t { 0% { transform: translate(42.1094px,35.2188px) scale(0.9,0.9) translate(-10.55555px,-10.55555px); } 4.3478% { transform: translate(42.1094px,35.2188px) scale(0.9,0.9) translate(-10.55555px,-10.55555px); } 5.4347% { transform: translate(42.1094px,35.2188px) scale(1.9,1.9) translate(-10px,-10px); } 6.9173% { transform: translate(42.1094px,35.2188px) scale(1,1) translate(-42.5px,-35px); } 30.4347% { transform: translate(42.1094px,35.2188px) scale(1,1) translate(-42.5px,-35px); } 31.7043% { transform: translate(42.1094px,35.2188px) scale(1.9,1.9) translate(-10px,-10px); } 32.7913% { transform: translate(42.1094px,35.2188px) scale(1.1,1.1) translate(-10.55555px,-10.55555px); } 100% { transform: translate(42.1094px,35.2188px) scale(1.1,1.1) translate(-10.55555px,-10.55555px); } }
@keyframes ballon_w { 0% { width: 20px; } 4.3478% { width: 20px; } 5.4348% { width: 20px; } 6.9174% { width: 85px; } 30.4348% { width: 85px; } 31.7043% { width: 20px; } 32.7913% { width: 20px; } 100% { width: 20px; } }
@keyframes ballon_h { 0% { height: 20px; } 4.3478% { height: 20px; } 5.4348% { height: 20px; } 6.9174% { height: 70px; } 30.4348% { height: 70px; } 31.7043% { height: 20px; } 32.7913% { height: 20px; } 100% { height: 20px; } }
@keyframes fragezeichen_t { 0% { transform: translate(40.78px,34.9378px) rotate(8deg) scale(0.1,0.1) translate(-588.604px,-331.049px); } 5.6173% { transform: translate(40.78px,34.9378px) rotate(8deg) scale(0.1,0.1) translate(-588.604px,-331.049px); animation-timing-function: cubic-bezier(0,0,0.58,1); } 6.6608% { transform: translate(40.78px,34.9378px) rotate(8deg) scale(1.6,1.6) translate(-588.604px,-331.049px); } 30.4347% { transform: translate(40.78px,34.9378px) rotate(8deg) scale(1.6,1.6) translate(-588.604px,-331.049px); } 31.7173% { transform: translate(40.78px,34.9378px) rotate(8deg) scale(0.1,0.1) translate(-588.604px,-331.049px); } 100% { transform: translate(40.78px,34.9378px) rotate(8deg) scale(0.1,0.1) translate(-588.604px,-331.049px); } }
@keyframes fragezeichen_o { 0% { opacity: 0.1; } 5.6174% { opacity: 0.1; animation-timing-function: cubic-bezier(0.42,0,1,1); } 6.6609% { opacity: 1; } 30.4348% { opacity: 1; } 31.7174% { opacity: 0.1; } 100% { opacity: 0.1; } }
@keyframes a1_t { 0% { transform: translate(207.654px,275.551px); } 36.9565% { transform: translate(207.654px,275.551px); animation-timing-function: cubic-bezier(0.377904,0,0.703415,0.391837); } 37.4521% { transform: translate(208.104767px,257.80957px); animation-timing-function: cubic-bezier(0.36636,0.250855,0.666129,0.668009); } 37.9521% { transform: translate(212.254471px,206.359573px); animation-timing-function: cubic-bezier(0.299258,0.46683,0.619035,0.853274); } 38.4478% { transform: translate(239.141388px,165.403641px); animation-timing-function: cubic-bezier(0.318139,0.648272,0.650585,1); } 38.9478% { transform: translate(256.597px,161.019px); } 62.8608% { transform: translate(256.597px,161.019px); animation-timing-function: cubic-bezier(0.327102,0,0.665172,0.380594); } 63.4478% { transform: translate(243.660172px,163.512054px); animation-timing-function: cubic-bezier(0.351114,0.234941,0.696857,0.613066); } 64.0391% { transform: translate(218.411316px,183.169617px); animation-timing-function: cubic-bezier(0.40819,0.368246,0.758523,0.744949); } 64.626% { transform: translate(208.82608px,227.919464px); animation-timing-function: cubic-bezier(0.458008,0.488414,0.801296,0.847388); } 64.9217% { transform: translate(208.667496px,254.516891px); animation-timing-function: cubic-bezier(0.43479,0.596325,0.770269,0.93953); } 65.2173% { transform: translate(209.654px,279.551px); } 100% { transform: translate(209.654px,279.551px); } }
@keyframes morph-2_t { 0% { transform: rotate(13.107388deg) scale(1.3,1.3) translate(-42.1094px,-35.2188px); } 38.226% { transform: rotate(13.107388deg) scale(1.3,1.3) translate(-42.1094px,-35.2188px); animation-timing-function: cubic-bezier(0.589045,-0.002438,0.58,1); } 39.313% { transform: rotate(-15.383139deg) scale(1.3,1.3) translate(-42.1094px,-35.2188px); animation-timing-function: cubic-bezier(0.515308,-0.001577,0.45968,0.998068); } 40.2173% { transform: rotate(2.647839deg) scale(1.3,1.3) translate(-42.1094px,-35.2188px); animation-timing-function: cubic-bezier(0.439695,0.0191,0.268898,1.002173); } 41.3043% { transform: rotate(-5.463632deg) scale(1.3,1.3) translate(-42.1094px,-35.2188px); } 62.8608% { transform: rotate(-5.463632deg) scale(1.3,1.3) translate(-42.1094px,-35.2188px); } 63.9304% { transform: rotate(10.54deg) scale(1.3,1.3) translate(-42.1094px,-35.2188px); } 100% { transform: rotate(10.54deg) scale(1.3,1.3) translate(-42.1094px,-35.2188px); } }
@keyframes dreieck-2_t { 0% { transform: translate(34.238px,59.9516px) scale(0.5,0.5) translate(-17px,-48.2301px); } 38.3782% { transform: translate(34.238px,59.9516px) scale(0.5,0.5) translate(-17px,-48.2301px); animation-timing-function: cubic-bezier(0,0,0.58,1); } 39.313% { transform: translate(28.6824px,75.9516px) scale(0.8,0.8) translate(-17px,-48.2301px); } 62.8608% { transform: translate(28.6824px,75.9516px) scale(0.8,0.8) translate(-17px,-48.2301px); } 63.5869% { transform: translate(33.8036px,55.3567px) scale(0.5,0.5) translate(-17px,-48.2301px); } 100% { transform: translate(33.8036px,55.3567px) scale(0.5,0.5) translate(-17px,-48.2301px); } }
@keyframes dreieck-2_o { 0% { opacity: 0; } 38.2261% { opacity: 0; } 38.3783% { opacity: 1; } 63.587% { opacity: 1; } 63.7696% { opacity: 0; } 100% { opacity: 0; } }
@keyframes ballon-2_t { 0% { transform: translate(42.1094px,35.2188px) scale(0.9,0.9) translate(-10.55555px,-10.55555px); } 36.9565% { transform: translate(42.1094px,35.2188px) scale(0.9,0.9) translate(-10.55555px,-10.55555px); } 38.0434% { transform: translate(42.1094px,35.2188px) scale(1.9,1.9) translate(-10px,-10px); } 39.526% { transform: translate(42.1094px,35.2188px) scale(1,1) translate(-42.5px,-35px); } 62.8608% { transform: translate(42.1094px,35.2188px) scale(1,1) translate(-42.5px,-35px); } 64.1304% { transform: translate(42.1094px,35.2188px) scale(1.9,1.9) translate(-10px,-10px); } 65.2173% { transform: translate(42.1094px,35.2188px) scale(1.1,1.1) translate(-10.55555px,-10.55555px); } 100% { transform: translate(42.1094px,35.2188px) scale(1.1,1.1) translate(-10.55555px,-10.55555px); } }
@keyframes ballon-2_w { 0% { width: 20px; } 36.9565% { width: 20px; } 38.0435% { width: 20px; } 39.5261% { width: 85px; } 62.8609% { width: 85px; } 64.1304% { width: 20px; } 65.2174% { width: 20px; } 100% { width: 20px; } }
@keyframes ballon-2_h { 0% { height: 20px; } 36.9565% { height: 20px; } 38.0435% { height: 20px; } 39.5261% { height: 70px; } 62.8609% { height: 70px; } 64.1304% { height: 20px; } 65.2174% { height: 20px; } 100% { height: 20px; } }
@keyframes fragezeichen-2_t { 0% { transform: translate(40.78px,34.9378px) rotate(8deg) scale(0.1,0.1) translate(-588.604px,-331.049px); } 38.226% { transform: translate(40.78px,34.9378px) rotate(8deg) scale(0.1,0.1) translate(-588.604px,-331.049px); animation-timing-function: cubic-bezier(0,0,0.58,1); } 39.2695% { transform: translate(40.78px,34.9378px) rotate(8deg) scale(1.6,1.6) translate(-588.604px,-331.049px); } 62.8608% { transform: translate(40.78px,34.9378px) rotate(8deg) scale(1.6,1.6) translate(-588.604px,-331.049px); } 64.1434% { transform: translate(40.78px,34.9378px) rotate(8deg) scale(0.1,0.1) translate(-588.604px,-331.049px); } 100% { transform: translate(40.78px,34.9378px) rotate(8deg) scale(0.1,0.1) translate(-588.604px,-331.049px); } }
@keyframes fragezeichen-2_o { 0% { opacity: 0.1; } 38.2261% { opacity: 0.1; animation-timing-function: cubic-bezier(0.42,0,1,1); } 39.2696% { opacity: 1; } 62.8609% { opacity: 1; } 64.1435% { opacity: 0.1; } 100% { opacity: 0.1; } }
@keyframes a2_t { 0% { transform: translate(207.654px,275.551px); } 71.7391% { transform: translate(207.654px,275.551px); animation-timing-function: cubic-bezier(0.377904,0,0.703415,0.391837); } 72.2347% { transform: translate(208.104767px,257.80957px); animation-timing-function: cubic-bezier(0.36636,0.250855,0.666129,0.668009); } 72.7347% { transform: translate(212.254471px,206.359573px); animation-timing-function: cubic-bezier(0.299258,0.46683,0.619035,0.853274); } 73.2304% { transform: translate(239.141388px,165.403641px); animation-timing-function: cubic-bezier(0.318139,0.648272,0.650585,1); } 73.7304% { transform: translate(256.597px,161.019px); } 97.6434% { transform: translate(256.597px,161.019px); animation-timing-function: cubic-bezier(0.327102,0,0.665172,0.380594); } 98.2304% { transform: translate(243.660172px,163.512054px); animation-timing-function: cubic-bezier(0.351114,0.234941,0.696857,0.613066); } 98.8217% { transform: translate(218.411316px,183.169617px); animation-timing-function: cubic-bezier(0.40819,0.368246,0.758523,0.744949); } 99.4086% { transform: translate(208.82608px,227.919464px); animation-timing-function: cubic-bezier(0.458008,0.488414,0.801296,0.847388); } 99.7043% { transform: translate(208.667496px,254.516891px); animation-timing-function: cubic-bezier(0.43479,0.596325,0.770269,0.93953); } 100% { transform: translate(209.654px,279.551px); } }
@keyframes morph-3_t { 0% { transform: rotate(13.107388deg) scale(1.3,1.3) translate(-42.1094px,-35.2188px); } 73.0086% { transform: rotate(13.107388deg) scale(1.3,1.3) translate(-42.1094px,-35.2188px); animation-timing-function: cubic-bezier(0.589045,-0.002438,0.58,1); } 74.0956% { transform: rotate(-15.383139deg) scale(1.3,1.3) translate(-42.1094px,-35.2188px); animation-timing-function: cubic-bezier(0.515308,-0.001577,0.45968,0.998068); } 75% { transform: rotate(2.647839deg) scale(1.3,1.3) translate(-42.1094px,-35.2188px); animation-timing-function: cubic-bezier(0.439695,0.0191,0.268898,1.002173); } 76.0869% { transform: rotate(-5.463632deg) scale(1.3,1.3) translate(-42.1094px,-35.2188px); } 97.6434% { transform: rotate(-5.463632deg) scale(1.3,1.3) translate(-42.1094px,-35.2188px); } 98.713% { transform: rotate(10.54deg) scale(1.3,1.3) translate(-42.1094px,-35.2188px); } 100% { transform: rotate(10.54deg) scale(1.3,1.3) translate(-42.1094px,-35.2188px); } }
@keyframes dreieck-3_t { 0% { transform: translate(34.238px,59.9516px) scale(0.5,0.5) translate(-17px,-48.2301px); } 73.1608% { transform: translate(34.238px,59.9516px) scale(0.5,0.5) translate(-17px,-48.2301px); animation-timing-function: cubic-bezier(0,0,0.58,1); } 74.0956% { transform: translate(28.6824px,75.9516px) scale(0.8,0.8) translate(-17px,-48.2301px); } 97.6434% { transform: translate(28.6824px,75.9516px) scale(0.8,0.8) translate(-17px,-48.2301px); } 98.3695% { transform: translate(33.8036px,55.3567px) scale(0.5,0.5) translate(-17px,-48.2301px); } 100% { transform: translate(33.8036px,55.3567px) scale(0.5,0.5) translate(-17px,-48.2301px); } }
@keyframes dreieck-3_o { 0% { opacity: 0; } 73.0087% { opacity: 0; } 73.1609% { opacity: 1; } 98.3696% { opacity: 1; } 98.5522% { opacity: 0; } 100% { opacity: 0; } }
@keyframes ballon-3_t { 0% { transform: translate(42.1094px,35.2188px) scale(0.9,0.9) translate(-10.55555px,-10.55555px); } 71.7391% { transform: translate(42.1094px,35.2188px) scale(0.9,0.9) translate(-10.55555px,-10.55555px); } 72.826% { transform: translate(42.1094px,35.2188px) scale(1.9,1.9) translate(-10px,-10px); } 74.3086% { transform: translate(42.1094px,35.2188px) scale(1,1) translate(-42.5px,-35px); } 97.6434% { transform: translate(42.1094px,35.2188px) scale(1,1) translate(-42.5px,-35px); } 98.913% { transform: translate(42.1094px,35.2188px) scale(1.9,1.9) translate(-10px,-10px); } 100% { transform: translate(42.1094px,35.2188px) scale(1.1,1.1) translate(-10.55555px,-10.55555px); } }
@keyframes ballon-3_w { 0% { width: 20px; } 71.7391% { width: 20px; } 72.8261% { width: 20px; } 74.3087% { width: 85px; } 97.6435% { width: 85px; } 98.913% { width: 20px; } 100% { width: 20px; } }
@keyframes ballon-3_h { 0% { height: 20px; } 71.7391% { height: 20px; } 72.8261% { height: 20px; } 74.3087% { height: 70px; } 97.6435% { height: 70px; } 98.913% { height: 20px; } 100% { height: 20px; } }
@keyframes fragezeichen-3_t { 0% { transform: translate(40.78px,34.9378px) rotate(8deg) scale(0.1,0.1) translate(-588.604px,-331.049px); } 73.0086% { transform: translate(40.78px,34.9378px) rotate(8deg) scale(0.1,0.1) translate(-588.604px,-331.049px); animation-timing-function: cubic-bezier(0,0,0.58,1); } 74.0521% { transform: translate(40.78px,34.9378px) rotate(8deg) scale(1.6,1.6) translate(-588.604px,-331.049px); } 97.6434% { transform: translate(40.78px,34.9378px) rotate(8deg) scale(1.6,1.6) translate(-588.604px,-331.049px); } 98.926% { transform: translate(40.78px,34.9378px) rotate(8deg) scale(0.1,0.1) translate(-588.604px,-331.049px); } 100% { transform: translate(40.78px,34.9378px) rotate(8deg) scale(0.1,0.1) translate(-588.604px,-331.049px); } }
@keyframes fragezeichen-3_o { 0% { opacity: 0.1; } 73.0087% { opacity: 0.1; animation-timing-function: cubic-bezier(0.42,0,1,1); } 74.0522% { opacity: 1; } 97.6435% { opacity: 1; } 98.9261% { opacity: 0.1; } 100% { opacity: 0.1; } }
    </style>
    <ellipse id="bg" rx="150.052" ry="150.052" fill="url(#Gradient-0)" fill-rule="evenodd" fill-opacity="1" stroke="none" stroke-width="9" transform="translate(250,170)"/>
    <g id="street" clip-path="url(#_clip1)" transform="translate(62.5,10)">
        <path id="bg-2" fill="#8c8c8c" d="M37.448,0L337.552,0L337.552,109.72L37.448,109.72Z" transform="translate(0,-30) translate(0,237.78)"/>
        <path d="M29,237.78L346,237.308" fill="none" stroke="#b3b3b3" stroke-width="2px" transform="translate(0,-30)"/>
        <g transform="translate(-18,-24) scale(1.1,1.1)">
            <path d="M104.27,258.655C104.27,258.241,103.934,257.905,103.52,257.905L85.244,257.905C84.83,257.905,84.494,258.241,84.494,258.655L84.494,260.155C84.494,260.569,84.83,260.905,85.244,260.905L103.52,260.905C103.934,260.905,104.27,260.569,104.27,260.155L104.27,258.655Z" fill="#fff"/>
            <path d="M141.517,258.655C141.517,258.241,141.181,257.905,140.767,257.905L122.491,257.905C122.077,257.905,121.741,258.241,121.741,258.655L121.741,260.155C121.741,260.569,122.077,260.905,122.491,260.905L140.767,260.905C141.181,260.905,141.517,260.569,141.517,260.155L141.517,258.655Z" fill="#fff"/>
            <path d="M178.764,258.655C178.764,258.241,178.428,257.905,178.014,257.905L159.738,257.905C159.325,257.905,158.988,258.241,158.988,258.655L158.988,260.155C158.988,260.569,159.325,260.905,159.738,260.905L178.014,260.905C178.428,260.905,178.764,260.569,178.764,260.155L178.764,258.655Z" fill="#fff"/>
            <path d="M216.012,258.655C216.012,258.241,215.675,257.905,215.262,257.905L196.986,257.905C196.572,257.905,196.236,258.241,196.236,258.655L196.236,260.155C196.236,260.569,196.572,260.905,196.986,260.905L215.262,260.905C215.675,260.905,216.012,260.569,216.012,260.155L216.012,258.655Z" fill="#fff"/>
            <path d="M253.259,258.655C253.259,258.241,252.923,257.905,252.509,257.905L234.233,257.905C233.819,257.905,233.483,258.241,233.483,258.655L233.483,260.155C233.483,260.569,233.819,260.905,234.233,260.905L252.509,260.905C252.923,260.905,253.259,260.569,253.259,260.155L253.259,258.655Z" fill="#fff"/>
            <path d="M290.506,258.655C290.506,258.241,290.17,257.905,289.756,257.905L271.48,257.905C271.066,257.905,270.73,258.241,270.73,258.655L270.73,260.155C270.73,260.569,271.066,260.905,271.48,260.905L289.756,260.905C290.17,260.905,290.506,260.569,290.506,260.155L290.506,258.655Z" fill="#fff"/>
        </g>
    </g>
    <g id="clouds" transform="translate(219.157,77.248) translate(-176.158,-52.248)">
        <g id="cloud-03a" transform="translate(-1.446,-39.727)" style="animation: 23s linear infinite both cloud-03a_t;">
            <path d="M61.389,121.315C62.711,113.603,69.435,107.727,77.521,107.727C83.944,107.727,89.508,111.434,92.187,116.823C93.854,116.136,95.681,115.756,97.595,115.756C105.435,115.756,111.801,122.122,111.801,129.962C111.801,137.802,105.435,144.168,97.595,144.168C97.541,144.168,97.488,144.168,97.434,144.167C97.385,144.168,97.336,144.168,97.286,144.168L60.227,144.168C53.921,144.168,48.801,139.048,48.801,132.741C48.801,126.435,53.921,121.315,60.227,121.315L61.389,121.315Z" fill="#fff" stroke="none" stroke-width="1.5px"/>
        </g>
        <g id="cloud-01-a" transform="translate(18.947,-15.835)" style="animation: 23s linear infinite both cloud-01-a_t;">
            <path d="M285.206,96.333C287.882,91.844,292.786,88.835,298.387,88.835C306.85,88.835,313.72,95.705,313.72,104.168C313.72,112.631,306.85,119.501,298.387,119.501C298.318,119.501,298.25,119.501,298.181,119.5C298.122,119.501,298.063,119.501,298.004,119.501L283.637,119.501C277.244,119.501,272.054,114.311,272.054,107.917C272.054,101.524,277.244,96.333,283.637,96.333L285.206,96.333Z" fill="#fff" stroke="none" stroke-width="1.5px"/>
        </g>
        <g id="cloud-02b" transform="translate(19.501,-53)" style="animation: 23s linear infinite both cloud-02b_t;">
            <path d="M149.743,62.744C153.205,56.912,159.567,53,166.835,53C174.11,53,180.478,56.921,183.937,62.763C184.21,62.75,184.485,62.743,184.762,62.743C194.276,62.743,202,70.468,202,79.982C202,89.496,194.276,97.22,184.762,97.22C184.697,97.22,184.632,97.22,184.567,97.219C184.507,97.22,184.447,97.22,184.387,97.22L134.866,97.22C127.213,97.22,121,91.007,121,83.355C121,75.702,127.213,69.489,134.866,69.489L135.922,69.489C139.075,65.388,144.029,62.743,149.596,62.743C149.645,62.743,149.694,62.744,149.743,62.744Z" fill="#fff" stroke="none" stroke-width="1.5px"/>
        </g>
        <g id="cloud-3b" clip-rule="evenodd" fill-rule="evenodd" stroke-linecap="round" stroke-linejoin="round" stroke-miterlimit="1.5" transform="translate(-48.801,-39.727)" style="animation: 23s linear infinite both cloud-3b_t;">
            <path d="M61.389,121.315C62.711,113.603,69.435,107.727,77.521,107.727C83.944,107.727,89.508,111.434,92.187,116.823C93.854,116.136,95.681,115.756,97.595,115.756C105.435,115.756,111.801,122.122,111.801,129.962C111.801,137.802,105.435,144.168,97.595,144.168C97.541,144.168,97.488,144.168,97.434,144.167C97.385,144.168,97.336,144.168,97.286,144.168L60.227,144.168C53.921,144.168,48.801,139.048,48.801,132.741C48.801,126.435,53.921,121.315,60.227,121.315L61.389,121.315Z" fill="#fff" stroke="none" stroke-width="1.5px"/>
        </g>
        <g id="cloud-1b" clip-rule="evenodd" fill-rule="evenodd" stroke-linecap="round" stroke-linejoin="round" stroke-miterlimit="1.5" transform="translate(-252.553,-15)" style="animation: 23s linear infinite both cloud-1b_t;">
            <path d="M285.206,96.333C287.882,91.844,292.786,88.835,298.387,88.835C306.85,88.835,313.72,95.705,313.72,104.168C313.72,112.631,306.85,119.501,298.387,119.501C298.318,119.501,298.25,119.501,298.181,119.5C298.122,119.501,298.063,119.501,298.004,119.501L283.637,119.501C277.244,119.501,272.054,114.311,272.054,107.917C272.054,101.524,277.244,96.333,283.637,96.333L285.206,96.333Z" fill="#fff" stroke="none" stroke-width="1.5px"/>
        </g>
        <g id="cloud-2b" clip-rule="evenodd" fill-rule="evenodd" stroke-linecap="round" stroke-linejoin="round" stroke-miterlimit="1.5" transform="translate(-98.052,-53)" style="animation: 23s linear infinite both cloud-2b_t;">
            <path d="M149.743,62.744C153.205,56.912,159.567,53,166.835,53C174.11,53,180.478,56.921,183.937,62.763C184.21,62.75,184.485,62.743,184.762,62.743C194.276,62.743,202,70.468,202,79.982C202,89.496,194.276,97.22,184.762,97.22C184.697,97.22,184.632,97.22,184.567,97.219C184.507,97.22,184.447,97.22,184.387,97.22L134.866,97.22C127.213,97.22,121,91.007,121,83.355C121,75.702,127.213,69.489,134.866,69.489L135.922,69.489C139.075,65.388,144.029,62.743,149.596,62.743C149.645,62.743,149.694,62.744,149.743,62.744Z" fill="#fff" stroke="none" stroke-width="1.5px"/>
        </g>
    </g>
    <path id="mask" d="M437.5,330L-62.5,330L-62.5,-10L437.5,-10ZM187.5,9.948C270.316,9.948,337.552,77.184,337.552,160C337.552,242.816,270.316,310.052,187.5,310.052C104.684,310.052,37.448,242.816,37.448,160C37.448,77.184,104.684,9.948,187.5,9.948Z" fill="#ffffff" transform="translate(62.5,10)"/>
    <ellipse id="border" rx="157.5" ry="157.5" stroke="#f9f9f9" stroke-width="16" fill="none" fill-rule="evenodd" transform="translate(100.516,10.4515) translate(149.484,159.549)"/>
    <g id="whole" fill="none" fill-rule="evenodd" transform="translate(209.597,244.228) scale(1.2,1.2) translate(-35.836,-15.448)">
        <path fill="#737373" d="M35.838,1C55.618,1,71.676,6.839,71.676,14.032C71.676,21.225,55.618,27.064,35.838,27.064C16.058,27.064,0,21.225,0,14.032C0,6.839,16.058,1,35.838,1" transform="translate(35.838,14.032) translate(-35.838,-14.032)"/>
        <path fill="#000" d="M71.672,16.864C71.672,24.057,55.614,29.896,35.834,29.896C16.054,29.896,-0.004,24.057,-0.004,16.864C-0.004,9.671,16.054,3.832,35.834,3.832C55.614,3.832,71.672,9.671,71.672,16.864Z" mask="url(#loch-b)" transform="translate(35.834,16.864) translate(-35.834,-16.864)"/>
    </g>
    <g transform="translate(207.654,275.551)" style="animation: 23s linear infinite both a0_t;">
        <g id="morph" opacity="1" transform="translate(0,0) rotate(13.1074) scale(1.3,1.3) translate(-42.1094,-35.2188)" style="animation: 23s linear infinite both morph_t;">
            <path id="dreieck" d="M0,35.4972L-4,60.963L38,35.4972C38,35.4972,0,35.4972,0,35.4972Z" fill="#d20e1e" stroke-miterlimit="1.5" stroke-linecap="round" stroke-linejoin="round" stroke="none" clip-rule="evenodd" fill-rule="evenodd" opacity="0" transform="translate(34.238,59.9516) scale(0.5,0.5) translate(-17,-48.2301)" style="animation: 23s linear infinite both dreieck_t, 23s linear infinite both dreieck_o;"/>
            <rect id="ballon" width="20" height="20" fill="#d20e1e" stroke-miterlimit="1.5" stroke-linecap="round" stroke-linejoin="round" rx="10" stroke="none" stroke-width="1" transform="translate(42.1094,35.2188) scale(0.9,0.9) translate(-10.5556,-10.5556)" style="animation: 23s linear infinite both ballon_t, 23s linear infinite both ballon_w, 23s linear infinite both ballon_h;"/>
            <path id="fragezeichen" d="M586.796,336.061L585.69,329.632L587.876,329.001C589.156,328.602,590.046,328.048,590.547,327.337C591.049,326.626,591.245,325.825,591.135,324.933C591.026,324.041,590.66,323.339,590.039,322.826C589.417,322.314,588.512,322.131,587.322,322.277C586.192,322.415,585.255,322.712,584.511,323.165C583.767,323.619,583.132,324.165,582.606,324.803L578.323,320.891C579.031,319.778,580.13,318.707,581.619,317.679C583.107,316.651,585.041,315.991,587.42,315.699C590.513,315.319,593.098,315.779,595.174,317.079C597.251,318.379,598.462,320.441,598.809,323.266C599.047,325.199,598.731,326.928,597.861,328.454C596.992,329.98,595.314,331.182,592.825,332.061L592.952,335.306L586.796,336.061ZM591.2,346.479C589.861,346.643,588.706,346.392,587.734,345.727C586.762,345.061,586.197,344.089,586.04,342.81C585.883,341.532,586.196,340.452,586.978,339.571C587.76,338.69,588.821,338.167,590.159,338.003C591.497,337.839,592.652,338.089,593.625,338.755C594.597,339.42,595.162,340.392,595.319,341.671C595.476,342.95,595.163,344.03,594.381,344.911C593.598,345.792,592.538,346.314,591.2,346.479L591.2,346.479Z" fill="#FFF" fill-rule="evenodd" opacity="0.1" clip-rule="evenodd" stroke-linecap="round" stroke-linejoin="round" stroke-miterlimit="1.5" transform="translate(40.78,34.9378) rotate(8) scale(0.1,0.1) translate(-588.604,-331.049)" style="animation: 23s linear infinite both fragezeichen_t, 23s linear infinite both fragezeichen_o;"/>
        </g>
    </g>
    <g transform="translate(207.654,275.551)" style="animation: 23s linear infinite both a1_t;">
        <g id="morph-2" opacity="1" transform="translate(0,0) rotate(13.1074) scale(1.3,1.3) translate(-42.1094,-35.2188)" style="animation: 23s linear infinite both morph-2_t;">
            <path id="dreieck-2" d="M0,35.4972L-4,60.963L38,35.4972C38,35.4972,0,35.4972,0,35.4972Z" fill="#d20e1e" stroke-miterlimit="1.5" stroke-linecap="round" stroke-linejoin="round" stroke="none" clip-rule="evenodd" fill-rule="evenodd" opacity="0" transform="translate(34.238,59.9516) scale(0.5,0.5) translate(-17,-48.2301)" style="animation: 23s linear infinite both dreieck-2_t, 23s linear infinite both dreieck-2_o;"/>
            <rect id="ballon-2" width="20" height="20" fill="#d20e1e" stroke-miterlimit="1.5" stroke-linecap="round" stroke-linejoin="round" rx="10" stroke="none" stroke-width="1" transform="translate(42.1094,35.2188) scale(0.9,0.9) translate(-10.5556,-10.5556)" style="animation: 23s linear infinite both ballon-2_t, 23s linear infinite both ballon-2_w, 23s linear infinite both ballon-2_h;"/>
            <path id="fragezeichen-2" d="M586.796,336.061L585.69,329.632L587.876,329.001C589.156,328.602,590.046,328.048,590.547,327.337C591.049,326.626,591.245,325.825,591.135,324.933C591.026,324.041,590.66,323.339,590.039,322.826C589.417,322.314,588.512,322.131,587.322,322.277C586.192,322.415,585.255,322.712,584.511,323.165C583.767,323.619,583.132,324.165,582.606,324.803L578.323,320.891C579.031,319.778,580.13,318.707,581.619,317.679C583.107,316.651,585.041,315.991,587.42,315.699C590.513,315.319,593.098,315.779,595.174,317.079C597.251,318.379,598.462,320.441,598.809,323.266C599.047,325.199,598.731,326.928,597.861,328.454C596.992,329.98,595.314,331.182,592.825,332.061L592.952,335.306L586.796,336.061ZM591.2,346.479C589.861,346.643,588.706,346.392,587.734,345.727C586.762,345.061,586.197,344.089,586.04,342.81C585.883,341.532,586.196,340.452,586.978,339.571C587.76,338.69,588.821,338.167,590.159,338.003C591.497,337.839,592.652,338.089,593.625,338.755C594.597,339.42,595.162,340.392,595.319,341.671C595.476,342.95,595.163,344.03,594.381,344.911C593.598,345.792,592.538,346.314,591.2,346.479L591.2,346.479Z" fill="#FFF" fill-rule="evenodd" opacity="0.1" clip-rule="evenodd" stroke-linecap="round" stroke-linejoin="round" stroke-miterlimit="1.5" transform="translate(40.78,34.9378) rotate(8) scale(0.1,0.1) translate(-588.604,-331.049)" style="animation: 23s linear infinite both fragezeichen-2_t, 23s linear infinite both fragezeichen-2_o;"/>
        </g>
    </g>
    <g transform="translate(207.654,275.551)" style="animation: 23s linear infinite both a2_t;">
        <g id="morph-3" opacity="1" transform="translate(0,0) rotate(13.1074) scale(1.3,1.3) translate(-42.1094,-35.2188)" style="animation: 23s linear infinite both morph-3_t;">
            <path id="dreieck-3" d="M0,35.4972L-4,60.963L38,35.4972C38,35.4972,0,35.4972,0,35.4972Z" fill="#d20e1e" stroke-miterlimit="1.5" stroke-linecap="round" stroke-linejoin="round" stroke="none" clip-rule="evenodd" fill-rule="evenodd" opacity="0" transform="translate(34.238,59.9516) scale(0.5,0.5) translate(-17,-48.2301)" style="animation: 23s linear infinite both dreieck-3_t, 23s linear infinite both dreieck-3_o;"/>
            <rect id="ballon-3" width="20" height="20" fill="#d20e1e" stroke-miterlimit="1.5" stroke-linecap="round" stroke-linejoin="round" rx="10" stroke="none" stroke-width="1" transform="translate(42.1094,35.2188) scale(0.9,0.9) translate(-10.5556,-10.5556)" style="animation: 23s linear infinite both ballon-3_t, 23s linear infinite both ballon-3_w, 23s linear infinite both ballon-3_h;"/>
            <path id="fragezeichen-3" d="M586.796,336.061L585.69,329.632L587.876,329.001C589.156,328.602,590.046,328.048,590.547,327.337C591.049,326.626,591.245,325.825,591.135,324.933C591.026,324.041,590.66,323.339,590.039,322.826C589.417,322.314,588.512,322.131,587.322,322.277C586.192,322.415,585.255,322.712,584.511,323.165C583.767,323.619,583.132,324.165,582.606,324.803L578.323,320.891C579.031,319.778,580.13,318.707,581.619,317.679C583.107,316.651,585.041,315.991,587.42,315.699C590.513,315.319,593.098,315.779,595.174,317.079C597.251,318.379,598.462,320.441,598.809,323.266C599.047,325.199,598.731,326.928,597.861,328.454C596.992,329.98,595.314,331.182,592.825,332.061L592.952,335.306L586.796,336.061ZM591.2,346.479C589.861,346.643,588.706,346.392,587.734,345.727C586.762,345.061,586.197,344.089,586.04,342.81C585.883,341.532,586.196,340.452,586.978,339.571C587.76,338.69,588.821,338.167,590.159,338.003C591.497,337.839,592.652,338.089,593.625,338.755C594.597,339.42,595.162,340.392,595.319,341.671C595.476,342.95,595.163,344.03,594.381,344.911C593.598,345.792,592.538,346.314,591.2,346.479L591.2,346.479Z" fill="#FFF" fill-rule="evenodd" opacity="0.1" clip-rule="evenodd" stroke-linecap="round" stroke-linejoin="round" stroke-miterlimit="1.5" transform="translate(40.78,34.9378) rotate(8) scale(0.1,0.1) translate(-588.604,-331.049)" style="animation: 23s linear infinite both fragezeichen-3_t, 23s linear infinite both fragezeichen-3_o;"/>
        </g>
    </g>
    <g id="mask-fake" transform="translate(209.595,278.074) translate(-43.0056,-35.6218)">
        <path id="maske-fake" d="M71.672,13.968C71.672,21.161,55.614,27,35.834,27C16.054,27,-0.004,21.161,-0.004,13.968L-0.004,54.1709L71.6717,73.3376C71.6717,73.3376,71.672,13.968,71.672,13.968Z" clip-rule="evenodd" fill-rule="evenodd" stroke-linecap="round" stroke-linejoin="round" stroke-miterlimit="1.5" fill="#8c8c8c" transform="translate(43.0056,0) scale(1.2,1.2) translate(-35.834,-13.968)"/>
        <path d="M141.517,258.655C141.517,258.241,141.181,257.905,140.767,257.905L122.491,257.905C122.077,257.905,121.741,258.241,121.741,258.655L121.741,260.155C121.741,260.569,122.077,260.905,122.491,260.905L140.767,260.905C141.181,260.905,141.517,260.569,141.517,260.155L141.517,258.655Z" fill="#fff" clip-rule="evenodd" fill-rule="evenodd" stroke-linecap="round" stroke-linejoin="round" stroke-miterlimit="1.5" transform="translate(-122.089,-256.452) scale(1.1,1.1)"/>
        <path d="M178.764,258.655C178.764,258.241,178.428,257.905,178.014,257.905L159.738,257.905C159.325,257.905,158.988,258.241,158.988,258.655L158.988,260.155C158.988,260.569,159.325,260.905,159.738,260.905L178.014,260.905C178.428,260.905,178.764,260.569,178.764,260.155L178.764,258.655Z" fill="#fff" clip-rule="evenodd" fill-rule="evenodd" stroke-linecap="round" stroke-linejoin="round" stroke-miterlimit="1.5" transform="translate(-122.089,-256.452) scale(1.1,1.1)"/>
    </g>
</svg>
